<?xml version="1.0" encoding="UTF-8" standalone="no"?>
<!-- Created with Inkscape (http://www.inkscape.org/) -->

<svg
   version="1.1"
   id="svg62"
   width="342.47198"
   height="145.5394"
   viewBox="0 0 342.47198 145.5394"
   sodipodi:docname="logo2.png"
   xmlns:inkscape="http://www.inkscape.org/namespaces/inkscape"
   xmlns:sodipodi="http://sodipodi.sourceforge.net/DTD/sodipodi-0.dtd"
   xmlns="http://www.w3.org/2000/svg"
   xmlns:svg="http://www.w3.org/2000/svg">
  <defs
     id="defs66" />
  <sodipodi:namedview
     id="namedview64"
     pagecolor="#505050"
     bordercolor="#eeeeee"
     borderopacity="1"
     inkscape:showpageshadow="0"
     inkscape:pageopacity="0"
     inkscape:pagecheckerboard="0"
     inkscape:deskcolor="#505050"
     showgrid="false" />
  <g
     inkscape:groupmode="layer"
     inkscape:label="Image"
     id="g68"
     transform="translate(-122.35475,-94.879539)">
    <g
       id="g415"
       transform="translate(-10.76871,5.2503191)">
      <path
         style="fill:#fefbfb"
         d="m 169.52479,194.48613 c -1.63636,-0.88066 -4.11136,-2.95809 -5.5,-4.61651 l -2.52479,-3.01531 -4.79877,3.74462 c -3.85299,3.00659 -5.86461,3.833 -10.20669,4.19308 -4.94403,0.41 -5.66087,0.1955 -8.35695,-2.50058 -5.41651,-5.4165 -6.38185,-13.97009 -3.20013,-28.35553 1.90868,-8.62973 10.25461,-32.25748 12.23855,-34.64798 2.28355,-2.7515 7.82469,-0.86602 7.82344,2.66208 -3e-4,0.8525 -2.20092,7.625 -4.89027,15.05 -5.80532,16.02786 -8.72685,29.85337 -7.39601,35 1.36692,5.28615 4.17791,5.11741 10.31052,-0.61893 5.95739,-5.57244 9.59575,-12.71966 16.48388,-32.38107 6.18219,-17.64639 7.90894,-21 10.81275,-21 2.81028,0 4.67968,1.75526 4.67968,4.39395 0,1.09667 -1.76964,6.52012 -3.93254,12.05209 -7.78461,19.91049 -11.64803,36.94456 -9.08081,40.03788 4.6362,5.58627 14.27503,-6.49905 30.42316,-38.14506 8.49066,-16.63942 10.23917,-18.89476 13.9304,-17.96832 3.08509,0.77431 3.85998,3.71845 1.92537,7.3153 -7.72163,14.35618 -12.54507,25.19586 -12.62856,28.38011 -0.2979,11.36121 12.88921,7.8142 16.10249,-4.33117 2.03606,-7.69579 7.06089,-17.29646 11.82737,-22.59795 8.33283,-9.2681 18.28707,-11.75662 26.88113,-6.72016 5.45898,3.19917 6.27361,3.20695 8.73065,0.0833 2.51873,-3.20205 6.49118,-3.31873 7.89761,-0.23196 0.85966,1.88676 -0.42651,5.96345 -7.6507,24.25 -4.77624,12.09008 -8.73842,23.49567 -8.80483,25.34575 -0.0919,2.56109 0.5203,3.84915 2.56557,5.3977 2.33651,1.76906 3.06996,1.875 5.63252,0.81355 7.94496,-3.29091 15.02004,-16.42858 31.81191,-59.07132 7.47279,-18.97705 14.45985,-35.268608 15.5268,-36.20347 2.64559,-2.318064 6.23742,-0.958996 6.65507,2.518129 0.19135,1.5931 -5.91791,18.353431 -15.75,43.209021 C 297.39128,160.97659 291,178.49064 291,180.54384 c 0,4.23523 3.38721,6.89905 7.46968,5.87441 3.47286,-0.87163 9.1266,-6.71335 12.01864,-12.41825 1.25467,-2.475 9.09697,-21.825 17.42732,-43 8.75954,-22.26594 15.97487,-39.198838 17.11158,-40.157335 1.08977,-0.918923 2.86306,-1.422612 3.98007,-1.130509 4.42913,1.158245 3.64666,4.42659 -8.28658,34.612624 -6.3435,16.04637 -11.68823,30.07522 -11.87717,31.17522 -0.54674,3.18296 6.63046,2.5258 14.44833,-1.32292 C 350.3387,150.70793 359,142.36307 359,139.04284 c 0,-3.13175 -4.30671,-2.59046 -8.46947,1.0645 -3.95003,3.46817 -7.90571,3.43664 -9.01928,-0.0719 -1.59456,-5.02401 6.02561,-11.22966 14.54617,-11.84598 5.4605,-0.39498 6.07006,-0.21583 8.90223,2.61633 10.20354,10.20354 -7.66919,31.60301 -30.20965,36.17077 -7.18191,1.4554 -7.4656,3.20691 -1.55752,9.61642 12.47363,13.53229 25.13402,12.93899 34.99627,-1.64004 2.02882,-2.99912 6.70476,-13.10295 10.39098,-22.45295 8.85762,-22.46709 9.91478,-24.5 12.74059,-24.5 2.84423,0 4.67968,1.76202 4.67968,4.49244 0,1.15085 -3.61033,11.07335 -8.02295,22.05 -4.41262,10.97666 -8.28555,21.5851 -8.6065,23.5743 -1.10918,6.8745 2.78411,10.09896 9.03845,7.48573 5.57411,-2.32901 11.31117,-12.33688 20.59117,-35.91973 6.95296,-17.66924 8.48298,-20.7659 10.51177,-21.27509 2.77698,-0.69698 4.48806,0.12323 4.48806,2.15137 0,1.95869 1.96662,1.81078 7.1408,-0.53706 14.25463,-6.4682 26.60013,4.3035 22.41881,19.56086 -0.74116,2.70445 -3.50006,9.41718 -6.13088,14.91718 -5.95521,12.44998 -6.6214,18.92931 -2.20399,21.4359 2.50936,1.42391 3.01095,1.39198 6.34579,-0.40395 4.02359,-2.16685 7.88807,-7.31385 13.91417,-18.53195 3.28201,-6.10972 4.4708,-7.5 6.41308,-7.5 4.71742,0 4.89533,2.80142 0.68086,10.72058 -9.46166,17.77882 -15.69693,23.95196 -24.32447,24.08212 -9.74421,0.147 -15.67263,-6.28989 -15.0149,-16.3027 0.26566,-4.04425 1.78025,-8.54384 5.72231,-17 3.15874,-6.77588 5.54846,-13.41014 5.81733,-16.14989 0.40802,-4.15782 0.17977,-4.83108 -2.15689,-6.36211 -4.04846,-2.65266 -8.61833,-1.25801 -15.00535,4.57937 -6.16951,5.63858 -11.93197,16.06426 -20.13696,36.43263 -2.65868,6.6 -5.499,12.7875 -6.31182,13.75 -1.77372,2.10034 -4.60827,2.26466 -6.37837,0.36976 -0.95443,-1.02172 -1.93873,-1.12619 -3.78943,-0.40221 -3.63815,1.42321 -10.50473,1.08997 -13.91877,-0.6755 -1.62921,-0.84249 -3.73436,-2.83897 -4.6781,-4.4366 l -1.7159,-2.90479 -4.9059,3.87788 c -5.77546,4.56524 -11.32788,6.28966 -18.37126,5.70557 -6.90883,-0.57294 -12.704,-3.75903 -20.15673,-11.08185 -7.21802,-7.0922 -7.47653,-7.028 -11.26626,2.79774 -1.27279,3.3 -2.74569,6.5625 -3.27311,7.25 -1.31041,1.70813 -5.19932,1.57515 -6.69662,-0.22899 -0.89169,-1.07441 -1.72783,-1.21119 -3.0567,-0.5 -2.78329,1.48957 -10.69252,1.16905 -14.05462,-0.56956 -1.64701,-0.8517 -3.79989,-2.8728 -4.78418,-4.49133 l -1.78961,-2.94278 -2.39911,2.55374 c -6.71749,7.15045 -15.02579,8.61874 -22.1377,3.9123 -4.77519,-3.16007 -5.69622,-3.12088 -12.14153,0.51662 -11.71127,6.60943 -22.65802,1.32959 -25.15828,-12.13436 l -0.6749,-3.63436 -3.8408,1.50871 c -4.80898,1.88902 -9.88869,1.04918 -13.85859,-2.29128 l -2.93746,-2.4717 -6.62793,8.48803 c -10.29777,13.18778 -16.3566,16.61324 -23.03124,13.02109 z m 72.23127,-10.64438 c 6.87337,-4.24798 14.17062,-18.45731 16.39456,-31.92379 1.43729,-8.7031 -0.1645,-13.32283 -4.98664,-14.38194 -6.57903,-1.445 -13.13786,3.96887 -18.4093,15.19564 -6.75802,14.39279 -7.47357,25.50153 -2.03009,31.51651 2.10884,2.33024 4.79935,2.20917 9.03147,-0.40642 z M 394.2,118.8 c -1.79324,-1.79324 -1.44801,-6.26558 0.62874,-8.14501 2.13913,-1.93589 6.25541,-2.17084 7.97126,-0.45499 1.69902,1.69902 1.48823,6.36891 -0.37143,8.22857 -1.85966,1.85966 -6.52955,2.07045 -8.22857,0.37143 z"
         id="path423" />
      <path
         style="fill:#53637c"
         d="m 381.25,232.28375 c 1.5125,-0.22913 3.9875,-0.22913 5.5,0 1.5125,0.22912 0.275,0.41659 -2.75,0.41659 -3.025,0 -4.2625,-0.18747 -2.75,-0.41659 z m 74.01903,-8.97674 c 0.97297,-0.25354 2.32297,-0.23687 3,0.0371 0.67703,0.27393 -0.11903,0.48137 -1.76903,0.46099 -1.65,-0.0204 -2.20394,-0.2445 -1.23097,-0.49804 z"
         id="path421" />
      <path
         style="fill:#4c5c77"
         d="m 358.34941,224 c 0,-4.675 0.17226,-6.5875 0.3828,-4.25 0.21053,2.3375 0.21053,6.1625 0,8.5 -0.21054,2.3375 -0.3828,0.425 -0.3828,-4.25 z"
         id="path419" />
      <path
         style="fill:#233758"
         d="m 149,224 v -11 h 6.5 c 7.47507,0 8.8613,1.7389 1.75,2.19521 -4.70421,0.30185 -4.75299,0.34094 -5.06037,4.05479 l -0.31036,3.75 h 4.56036 c 2.50821,0 4.56037,0.45 4.56037,1 0,0.55 -2.025,1 -4.5,1 H 152 v 5 c 0,3.77778 -0.36667,5 -1.5,5 -1.24242,0 -1.5,-1.88889 -1.5,-11 z m 13.24617,9.75 c 0.25308,-0.6875 1.91333,-5.6375 3.68945,-11 4.33267,-13.08129 5.4213,-12.98542 10.32395,0.90919 2.06777,5.86025 3.54967,10.8649 3.29313,11.12144 -1.17251,1.17252 -3.32702,-0.90221 -3.89714,-3.75283 -0.59875,-2.99374 -0.82992,-3.12937 -4.83396,-2.83595 -3.80881,0.27911 -4.28402,0.61446 -5.04197,3.55815 -0.49965,1.94052 -1.47278,3.25 -2.41521,3.25 -0.86812,0 -1.37133,-0.5625 -1.11825,-1.25 z M 174,225.64922 c 0,-0.33324 -1.58566,-5.42944 -2.69117,-8.64922 -0.30373,-0.88462 -1.08188,0.34615 -1.89674,3 -1.84629,6.01297 -1.84972,6 1.58791,6 1.65,0 3,-0.15785 3,-0.35078 z m 9.53835,8.00248 c -3.00333,-2.19609 -0.96989,-3.80635 2.37933,-1.88416 2.38392,1.36818 3.32851,1.44132 5.54886,0.42966 3.64727,-1.66181 2.93291,-4.13758 -1.97502,-6.84487 C 183.82236,222.22512 183,221.29318 183,217.99576 183,214.55878 185.28143,213 190.31181,213 c 3.63721,0 6.68116,2.26828 4.69294,3.49706 -0.6008,0.37132 -1.7418,0.13613 -2.53557,-0.52264 -0.83046,-0.68922 -2.53772,-0.92305 -4.02111,-0.55074 -4.18918,1.05142 -2.87713,4.61457 2.66655,7.24159 2.53804,1.20271 4.90014,2.93081 5.24911,3.8402 0.93777,2.44381 -0.33422,6.40837 -2.41302,7.52091 -2.61793,1.40107 -8.2616,1.19799 -10.41236,-0.37468 z M 205,225 v -10 h -3.5 c -1.925,0 -3.5,-0.45 -3.5,-1 0,-0.58824 3.5,-1 8.5,-1 5,0 8.5,0.41176 8.5,1 0,0.55 -1.575,1 -3.5,1 H 208 v 10 c 0,8.22222 -0.26667,10 -1.5,10 -1.23333,0 -1.5,-1.77778 -1.5,-10 z m 20,-1 v -11 h 6.5 c 3.66667,0 6.5,0.4359 6.5,1 0,0.55 -2.25,1 -5,1 h -5 v 4 4 h 4 c 2.2,0 4,0.45 4,1 0,0.55 -1.8,1 -4,1 h -4 v 5 c 0,3.77778 -0.36667,5 -1.5,5 -1.24242,0 -1.5,-1.88889 -1.5,-11 z m 18.64933,9.16501 c -2.70195,-2.98563 -3.90378,-8.58393 -2.74428,-12.78329 1.51792,-5.49747 3.72873,-7.38172 8.66104,-7.38172 3.52498,0 4.70086,0.52854 6.84502,3.07673 3.39923,4.03975 3.52526,10.23398 0.30571,15.02539 -1.95577,2.9106 -2.93132,3.44043 -6.80272,3.69461 -3.44934,0.22647 -4.9328,-0.15991 -6.26477,-1.63172 z m 9.89612,-2.61956 c 3.34538,-3.34537 3.37209,-9.36721 0.0586,-13.21933 -2.10921,-2.45211 -2.73716,-2.66541 -5.24768,-1.7825 -3.79175,1.33349 -5.69883,5.47017 -4.84679,10.51331 0.65233,3.8611 3.43035,6.94307 6.25834,6.94307 0.72762,0 2.42749,-1.10455 3.77749,-2.45455 z m 13.68351,3.78526 c -3.84313,-1.54628 -5.51066,-11.95149 -2.76595,-17.25919 C 266.09068,213.92397 267.80109,213 272,213 c 4.19891,0 5.90932,0.92397 7.53699,4.07152 4.08545,7.9004 -0.0907,18.00663 -7.37588,17.84953 -2.01361,-0.0434 -4.23308,-0.30907 -4.93215,-0.59034 z m 9.52104,-4.07657 c 0.6875,-0.90002 1.25,-3.78286 1.25,-6.40631 0,-5.8256 -2.92623,-9.31738 -6.99021,-8.34122 -3.5928,0.86299 -5.00979,3.23043 -5.00979,8.37007 0,5.70459 3.10992,9.54921 6.97347,8.62091 1.38959,-0.33388 3.08903,-1.34343 3.77653,-2.24345 z m 9.25,-6.37797 v -11.12383 l 5.66944,0.47015 c 4.59718,0.38124 6.11021,0.98259 8,3.1796 3.99056,4.63931 2.47181,14.8464 -2.61405,17.56827 C 295.99724,234.53666 293.0769,235 290.56574,235 H 286 Z m 11.25,5.93287 c 0.99962,-1.1599 1.75,-3.65077 1.75,-5.80904 0,-4.6639 -2.44789,-7.79067 -6.75,-8.62199 L 289,214.75 v 9.20446 9.20445 l 3.25,-0.65963 c 1.7875,-0.36279 4.0375,-1.5734 5,-2.69024 z m 18.81493,3.25589 c -5.95711,-5.95711 -3.37914,-19.6648 3.79585,-20.18341 C 327.32528,212.34198 331,216.16502 331,224.47033 331,230.70903 327.29617,235 321.91111,235 c -2.53403,0 -4.59244,-0.68133 -5.84618,-1.93507 z m 9.48052,-2.51948 c 5.40313,-5.40312 1.59472,-16.80138 -5.05598,-15.13216 -7.24916,1.81942 -6.09143,17.38266 1.30598,17.5563 0.7125,0.0167 2.4,-1.07414 3.75,-2.42414 z M 336,224 v -11 h 5.30887 c 2.91988,0 6.14488,0.6113 7.16667,1.35845 2.63119,1.92398 2.4627,7.46339 -0.29493,9.69638 l -2.15272,1.74317 2.57155,4.601 c 3.51809,6.29455 0.63903,6.39 -3.04657,0.101 -1.7013,-2.90305 -3.33197,-4.5 -4.59502,-4.5 -1.65375,0 -1.95785,0.69896 -1.95785,4.5 0,3.33333 -0.38889,4.5 -1.5,4.5 -1.24242,0 -1.5,-1.88889 -1.5,-11 z m 10.8,-2.2 c 2.75515,-2.75515 -0.14253,-6.8 -4.87143,-6.8 -2.75,0 -2.92857,0.2439 -2.92857,4 0,3.85859 0.11667,4 3.3,4 1.815,0 3.84,-0.54 4.5,-1.2 z m 8.2,2.2 v -11 h 4.45295 C 367.9132,213 371,216.10736 371,224.62398 c 0,3.67336 -0.55269,5.08256 -2.92308,7.45294 -2.46309,2.4631 -3.72199,2.92308 -8,2.92308 H 355 Z m 11.25,6.2107 c 1.20978,-1.05125 1.75,-2.99391 1.75,-6.29311 0,-3.99003 -0.44123,-5.1195 -2.69139,-6.88948 -1.48027,-1.16438 -3.61777,-1.98454 -4.75,-1.82258 -1.83439,0.2624 -2.09096,1.10117 -2.35558,7.70089 -0.16333,4.07352 -0.0607,8.02208 0.22804,8.77456 0.63709,1.66022 5.20479,0.8013 7.81893,-1.47028 z M 376,224 v -11 h 6.5 c 3.66667,0 6.5,0.4359 6.5,1 0,0.55 -2.25,1 -5,1 h -5 v 3.5 c 0,3.41667 0.0952,3.5 4,3.5 2.88889,0 4,0.41667 4,1.5 0,1.08333 -1.11111,1.5 -4,1.5 h -4 v 4 4 h 5 c 2.75,0 5,0.45 5,1 0,0.5641 -2.83333,1 -6.5,1 H 376 Z m 18,0 v -11 h 5.30887 c 2.91988,0 6.14488,0.6113 7.16667,1.35845 2.67103,1.95311 2.4603,7.46533 -0.37311,9.75969 l -2.23091,1.80648 2.65926,4.53769 c 2.12567,3.62717 2.34767,4.53769 1.1064,4.53769 -0.85408,0 -2.7396,-2.025 -4.19005,-4.5 -1.66177,-2.83561 -3.34176,-4.5 -4.54215,-4.5 -1.59109,0 -1.90498,0.74149 -1.90498,4.5 0,3.33333 -0.38889,4.5 -1.5,4.5 -1.24242,0 -1.5,-1.88889 -1.5,-11 z m 10.96482,-2.93426 c 1.33879,-2.50156 1.32284,-2.63522 -0.53625,-4.49431 -0.86428,-0.86429 -2.88928,-1.57143 -4.5,-1.57143 -2.75,0 -2.92857,0.2439 -2.92857,4 0,3.89703 0.0892,4 3.46482,4 2.4021,0 3.78232,-0.59327 4.5,-1.93426 z M 413,224 c 0,-9.11111 0.25758,-11 1.5,-11 1.24242,0 1.5,1.88889 1.5,11 0,9.11111 -0.25758,11 -1.5,11 -1.24242,0 -1.5,-1.88889 -1.5,-11 z m 9,0 c 0,-9.81564 0.18842,-10.99827 1.75,-10.98395 1.1471,0.0105 3.30031,2.81846 6.25,8.15044 l 4.5,8.13439 0.29044,-8.15044 c 0.22611,-6.34513 0.61373,-8.15044 1.75,-8.15044 1.19095,0 1.45956,2.02435 1.45956,11 0,13.86548 -1.01554,14.1549 -7.8949,2.25 l -5.05627,-8.75 -0.0244,8.75 c -0.0198,7.10026 -0.30722,8.75 -1.52441,8.75 -1.24242,0 -1.5,-1.88889 -1.5,-11 z m 23.55089,7.65561 c -5.76673,-7.56057 -1.53324,-18.67465 7.10032,-18.6403 4.39681,0.0175 6.92358,1.24564 5.91622,2.87559 -0.47649,0.77097 -1.26631,0.80544 -2.56238,0.1118 -2.94194,-1.57448 -4.90085,-1.19781 -7.5505,1.45185 -3.41099,3.41098 -3.41099,9.67992 0,13.0909 C 452.37494,234.46585 457,233.57149 457,228.89301 457,226.4738 456.59057,226 454.5,226 c -1.375,0 -2.5,-0.45 -2.5,-1 0,-0.55 1.8,-1 4,-1 h 4 v 4.46482 c 0,5.20931 -1.5994,6.53518 -7.88337,6.53518 -3.37766,0 -4.41969,-0.53078 -6.56574,-3.34439 z"
         id="path417" />
    </g>
  </g>
</svg>
